<svg xmlns="http://www.w3.org/2000/svg" fill="none" viewBox="0 0 20 20"><path fill="#000" d="M18.7 5.2A10 10 0 005 1.6 10 10 0 002 16c1.2 1.8 2.8 3 4.8 3.6h.6l.1-.4a303.8 303.8 0 000-2l-.3.1H5.5a2 2 0 01-.8-.4c-.3-.2-.4-.5-.6-.8V16l-.5-.7-.6-.5a1 1 0 01-.3-.4v-.1h.7l.6.3c.3.2.5.4.6.7l.8.8c.2.2.5.3.8.3l.8-.1.5-.2c.1-.6.3-1 .7-1.3a9 9 0 01-1.4-.3c-.4 0-.8-.2-1.2-.5A3.5 3.5 0 014 11.7c-.2-.6-.3-1.2-.3-2 0-1 .4-2 1-2.7-.3-.7-.2-1.6.1-2.6.3 0 .7 0 1.2.2a7.8 7.8 0 011.6.8 9.2 9.2 0 015 0l.5-.3a7 7 0 011.2-.6c.5-.1.8-.2 1-.1.4 1 .5 1.9.2 2.6.6.8 1 1.7 1 2.7 0 .8-.1 1.4-.3 2a4 4 0 01-.7 1.4l-1 .8c-.5.3-.9.4-1.3.5l-1.3.3c.5.3.7 1 .7 1.8v2.8l.1.3c.2.1.3.2.6.1 2-.6 3.6-1.8 4.9-3.6 1.3-1.7 1.9-3.7 1.9-5.9 0-1.8-.4-3.4-1.3-5z"/></svg>